<svg width="17" height="13" viewBox="0 0 17 13" fill="none" xmlns="http://www.w3.org/2000/svg">
<path d="M14.3888 1.08998C13.2888 0.584866 12.1172 0.212678 10.8829 0C10.7309 0.265848 10.552 0.629174 10.4358 0.921607C9.12998 0.726651 7.83315 0.726651 6.55422 0.921607C6.42901 0.629174 6.25014 0.265848 6.09809 0C4.86387 0.212678 3.69226 0.584866 2.59219 1.08998C0.374165 4.40422 -0.225059 7.63873 0.0700813 10.82C1.54578 11.91 2.96782 12.5658 4.37197 13C4.72077 12.5303 5.02486 12.0252 5.29317 11.5024C4.78338 11.3163 4.30042 11.077 3.8443 10.8023C3.96951 10.7137 4.08578 10.6162 4.20204 10.5276C7.00139 11.8214 10.0333 11.8214 12.7969 10.5276C12.9131 10.6251 13.0294 10.7137 13.1546 10.8023C12.6985 11.077 12.2066 11.3074 11.7057 11.5024C11.9741 12.0252 12.2781 12.5303 12.6269 13C14.0311 12.5658 15.4621 11.91 16.9288 10.82C17.2776 7.12476 16.3296 3.92569 14.4067 1.08998H14.3888ZM5.6688 8.87049C4.8281 8.87049 4.13944 8.09953 4.13944 7.15134C4.13944 6.20315 4.81021 5.43219 5.6688 5.43219C6.52739 5.43219 7.2071 6.20315 7.19815 7.15134C7.19815 8.09067 6.52739 8.87049 5.6688 8.87049ZM11.3122 8.87049C10.4715 8.87049 9.78287 8.09953 9.78287 7.15134C9.78287 6.20315 10.4536 5.43219 11.3122 5.43219C12.1708 5.43219 12.8505 6.20315 12.8416 7.15134C12.8416 8.09067 12.1708 8.87049 11.3122 8.87049Z" fill="#181E8F"/>
</svg>
