<svg width="60" height="60" viewBox="0 0 60 60" fill="none" xmlns="http://www.w3.org/2000/svg">
<path d="M11.7162 0.787068C12.592 3.65097 16.1186 8.05334 19.1718 10.0889C22.7931 12.5031 26.1542 13.4024 30.8642 13.2368C33.5388 13.1421 34.2725 13.0238 36.2132 12.361C39.4323 11.2723 41.4205 10.0178 43.9293 7.50896C45.7044 5.73381 46.2725 4.95274 47.1719 3.13027C47.7872 1.92316 48.2842 0.787068 48.2842 0.597718C48.2842 0.337363 47.527 0.266357 44.0239 0.266357C41.5861 0.266357 39.7635 0.361032 39.7635 0.479375C39.7635 0.597718 39.2193 1.28411 38.5564 2.01784C36.3316 4.4557 32.1897 5.99417 28.805 5.5918C25.8938 5.28411 23.1009 3.81665 21.16 1.5918L20.0003 0.266357H15.7872H11.5742L11.7162 0.787068Z" fill="#171D8F"/>
<path d="M0 15.8402V20.0769L0.615385 20.4082C1.63314 20.9526 3.50295 23.1538 4.23669 24.7159C5.5858 27.5798 5.79882 31.1301 4.7574 33.8993C3.99999 35.8876 2.55621 37.994 1.2071 39.0119L0.0236686 39.9112V44.1005C0 47.3196 0.0710059 48.3137 0.307692 48.3137C0.449704 48.3137 1.27811 47.9823 2.10651 47.6036C7.33727 45.1184 11.2663 40.2426 12.7101 34.4437C13.3018 32.0295 13.2308 27.4615 12.568 25C11.1243 19.5799 7.50296 15.0592 2.79289 12.716C1.5858 12.1242 0.449704 11.6272 0.284024 11.6272C0.0710059 11.6272 0 12.645 0 15.8402Z" fill="#171D8F"/>
<path d="M27.5263 22.7041C23.2659 24.2188 21.1594 28.4318 22.5795 32.6449C23.1001 34.1597 24.9227 36.2424 26.3664 36.9525C29.3724 38.3964 32.9463 37.8046 35.2895 35.4614C38.1772 32.5739 38.2718 27.9585 35.5262 24.8105C33.7274 22.7751 30.0587 21.8046 27.5263 22.7041Z" fill="#171D8F"/>
<path d="M25.6099 47.0117C21.7756 47.8875 18.8406 49.5443 15.953 52.4555C14.0596 54.3253 13.6099 54.9407 12.5684 57.0945L11.3613 59.5561L15.5507 59.6271L19.74 59.6745L21.1365 58.136C22.2252 56.9289 22.9353 56.4082 24.45 55.6508C29.3732 53.2366 34.5803 54.1361 38.391 58.065L39.9531 59.6745H44.1187C46.4146 59.6745 48.2844 59.6271 48.2844 59.5561C48.2844 59.5087 48.024 58.8697 47.7164 58.1834C45.4916 53.1182 40.9472 49.1419 35.3849 47.3667C33.2548 46.6804 27.9057 46.491 25.6099 47.0117Z" fill="#171D8F"/>
</svg>
