<svg width="60" height="60" viewBox="0 0 338 335" fill="none" xmlns="http://www.w3.org/2000/svg">
<path d="M65.9992 2.93326C70.9326 19.0666 90.7992 43.8666 107.999 55.3333C128.399 68.9333 147.333 73.9999 173.866 73.0666C188.933 72.5333 193.066 71.8666 203.999 68.1333C222.133 61.9999 233.333 54.9333 247.466 40.7999C257.466 30.7999 260.666 26.3999 265.733 16.1333C269.199 9.33325 271.999 2.93326 271.999 1.86659C271.999 0.399923 267.733 -7.70585e-05 247.999 -7.70585e-05C234.266 -7.70585e-05 223.999 0.533256 223.999 1.19992C223.999 1.86659 220.933 5.73325 217.199 9.86659C204.666 23.5999 181.333 32.2666 162.266 29.9999C145.866 28.2666 130.133 19.9999 119.199 7.46659L112.666 -7.70585e-05H88.9326H65.1992L65.9992 2.93326Z" fill="#171D8F"/>
<path d="M0 87.7332V111.6L3.46667 113.466C9.2 116.533 19.7333 128.933 23.8667 137.733C31.4667 153.866 32.6667 173.866 26.8 189.466C22.5333 200.667 14.4 212.533 6.8 218.267L0.133333 223.333V246.933C0 265.067 0.4 270.667 1.73333 270.667C2.53333 270.667 7.2 268.8 11.8667 266.667C41.3333 252.667 63.4667 225.2 71.6 192.533C74.9333 178.933 74.5333 153.2 70.8 139.333C62.6667 108.8 42.2667 83.3332 15.7333 70.1332C8.93333 66.7998 2.53333 63.9998 1.6 63.9998C0.4 63.9998 0 69.7332 0 87.7332Z" fill="#171D8F"/>
<path d="M325.467 67.9998C286.001 86.3998 260.267 130.133 263.067 174C265.334 206.4 280.667 236.133 304.534 254.267C312.534 260.267 332.134 270.667 335.601 270.667C336.934 270.667 337.334 265.733 337.334 247.867V225.067L328.001 216.4C312.667 202.133 305.734 184.8 306.934 163.333C308.134 144.666 316.667 127.333 330.401 116.666L337.201 111.333V87.5998C337.334 69.5998 336.934 63.9998 335.734 63.9998C334.801 64.1332 330.134 65.8665 325.467 67.9998Z" fill="#171D8F"/>
<path d="M155.065 126.4C131.065 134.933 119.198 158.666 127.198 182.4C130.131 190.933 140.398 202.666 148.531 206.666C165.465 214.8 185.598 211.466 198.798 198.266C215.065 182 215.598 156 200.131 138.266C189.998 126.8 169.331 121.333 155.065 126.4Z" fill="#171D8F"/>
<path d="M144.267 263.333C122.667 268.267 106.133 277.6 89.8667 294C79.2 304.533 76.6667 308 70.8 320.133L64 334L87.6 334.4L111.2 334.667L119.067 326C125.2 319.2 129.2 316.267 137.733 312C165.467 298.4 194.8 303.467 216.267 325.6L225.067 334.667H248.533C261.467 334.667 272 334.4 272 334C272 333.733 270.533 330.133 268.8 326.267C256.267 297.733 230.667 275.333 199.333 265.333C187.333 261.467 157.2 260.4 144.267 263.333Z" fill="#171D8F"/>
</svg>
