<svg width="28" height="28" viewBox="0 0 28 28" fill="none" xmlns="http://www.w3.org/2000/svg">
<path fill-rule="evenodd" clip-rule="evenodd" d="M24.3217 2.19163C22.9548 0.824797 20.7387 0.824793 19.3719 2.19163L2.8547 18.7089C2.3661 19.1975 2.03305 19.8198 1.89754 20.4972L1.21262 23.9219C0.886089 25.5545 2.32557 26.9941 3.95825 26.6675L7.38281 25.9826C8.06038 25.8471 8.68267 25.514 9.17128 25.0254L25.6884 8.50821C27.0553 7.14138 27.0553 4.92531 25.6884 3.55846L24.3217 2.19163ZM21.0217 3.84154C21.4774 3.38594 22.2161 3.38594 22.6718 3.84154L24.0385 5.20838C24.4942 5.66399 24.4942 6.40268 24.0385 6.8583L20.9216 9.97515L17.905 6.9584L21.0217 3.84154ZM16.255 8.60832L4.50461 20.3588C4.34174 20.5216 4.23073 20.7291 4.18556 20.9549L3.50064 24.3794L6.92521 23.6945C7.15106 23.6493 7.3585 23.5384 7.52136 23.3755L19.2718 11.6251L16.255 8.60832Z" fill="#171D88"/>
</svg>
