<svg width="41" height="41" viewBox="0 0 41 41" fill="none" xmlns="http://www.w3.org/2000/svg">
<g clip-path="url(#clip0_424_2541)">
<path fill-rule="evenodd" clip-rule="evenodd" d="M20.5 20.5C15.9562 20.5 12.261 16.8223 12.261 12.3C12.261 7.77767 15.9562 4.09997 20.5 4.09997C25.0438 4.09997 28.739 7.77767 28.739 12.3C28.739 16.8223 25.0438 20.5 20.5 20.5ZM28.2406 21.8796C31.5094 19.2617 33.4147 15.0284 32.7144 10.3934C31.9008 5.01621 27.4064 0.713353 21.981 0.0860526C14.4938 -0.781097 8.14145 5.02042 8.14145 12.3C8.14145 16.1745 9.94579 19.6266 12.7594 21.8796C5.84687 24.4646 0.800449 30.5347 0.00949983 38.7265C-0.105845 39.938 0.843713 41 2.06721 41C3.11563 41 4.00957 40.2128 4.10226 39.1734C4.92822 30.0243 11.9664 24.6 20.5 24.6C29.0336 24.6 36.0718 30.0243 36.8978 39.1734C36.9904 40.2128 37.8844 41 38.9328 41C40.1563 41 41.1058 39.938 40.9905 38.7265C40.1995 30.5347 35.1531 24.4646 28.2406 21.8796Z" fill="#181E8F"/>
</g>
<defs>
<clipPath id="clip0_424_2541">
<rect width="41" height="41" fill="white"/>
</clipPath>
</defs>
</svg>
