<svg width="37" height="37" viewBox="0 0 37 37" fill="none" xmlns="http://www.w3.org/2000/svg">
<circle cx="18.3674" cy="18.3674" r="16.8674" stroke="#161B80" stroke-width="3"/>
<path d="M19.7422 10.2144C19.7422 9.66207 19.2945 9.21436 18.7422 9.21436C18.1899 9.21436 17.7422 9.66207 17.7422 10.2144L19.7422 10.2144ZM18.0351 27.9769C18.4256 28.3675 19.0588 28.3675 19.4493 27.9769L25.8133 21.613C26.2038 21.2224 26.2038 20.5893 25.8133 20.1988C25.4227 19.8082 24.7896 19.8082 24.399 20.1988L18.7422 25.8556L13.0853 20.1988C12.6948 19.8082 12.0616 19.8082 11.6711 20.1988C11.2806 20.5893 11.2806 21.2224 11.6711 21.613L18.0351 27.9769ZM17.7422 10.2144L17.7422 27.2698L19.7422 27.2698L19.7422 10.2144L17.7422 10.2144Z" fill="#161B80"/>
</svg>
